<svg xmlns="http://www.w3.org/2000/svg" version="1.1" id="Layer_1" x="0px" y="0px"
     style="enable-background:new 0 0 500 380;" xml:space="preserve" viewBox="20.225 -39 459 459">
<style type="text/css">
	.st0{fill:#FFFFFF;stroke:#FFFFFF;stroke-width:12;stroke-linecap:round;stroke-linejoin:round;stroke-miterlimit:10;}
	.st1{fill:#0A2240;}
	.st2{fill:#C8C8C8;}
</style>
<rect style="fill:#0A2240;" y="-39" x="20.225" width="100%" height="100%" />
<path class="st0" d="M412.5,77.9l-0.3-6.7l-5.3-4.1C335.2,11.3,270.5,7,252.4,7c-1.3,0-2.3,0-2.9,0h-2.3c-26.3,0-81.2,7.7-154,59.7  l-5.8,4.1l-0.5,7C87,79.9,84,130.6,101.2,192c23.1,82.2,71.9,143.8,141.2,178.7l6.7,3.3l6.7-3.3c69.2-34.7,118.2-96.5,141.8-178.6  C415.2,130.8,412.6,80,412.5,77.9z"/>
<g>
	<g>
		<path class="st1" d="M289.4,154.5L289.4,154.5l0.1,0.1C289.5,154.5,289.4,154.5,289.4,154.5 M286.4,153c1,0.6,2,1,3,1.5    c0-0.1,0-0.2,0-0.3c0-0.2,0.1-0.6,0.1-0.8L286.4,153z M289.4,154.5L289.4,154.5l0.1,0.1C289.5,154.5,289.4,154.5,289.4,154.5     M286.4,153c1,0.6,2,1,3,1.5c0-0.1,0-0.2,0-0.3c0-0.2,0.1-0.6,0.1-0.8L286.4,153z M289.4,154.5L289.4,154.5l0.1,0.1    C289.5,154.5,289.4,154.5,289.4,154.5 M286.4,153c1,0.6,2,1,3,1.5c0-0.1,0-0.2,0-0.3c0-0.2,0.1-0.6,0.1-0.8L286.4,153z     M289.4,154.5L289.4,154.5l0.1,0.1C289.5,154.5,289.4,154.5,289.4,154.5 M286.4,153c1,0.6,2,1,3,1.5c0-0.1,0-0.2,0-0.3    c0-0.2,0.1-0.6,0.1-0.8L286.4,153z M250.6,111.4v0.2h0.1C250.7,111.5,250.7,111.4,250.6,111.4 M289.4,154.5L289.4,154.5l0.1,0.1    C289.5,154.5,289.4,154.5,289.4,154.5 M286.4,153c1,0.6,2,1,3,1.5c0-0.1,0-0.2,0-0.3c0-0.2,0.1-0.6,0.1-0.8L286.4,153z     M250.6,111.4v0.2h0.1C250.7,111.5,250.7,111.4,250.6,111.4 M250.6,111.4v0.2h0.1C250.7,111.5,250.7,111.4,250.6,111.4     M289.4,154.5L289.4,154.5l0.1,0.1C289.5,154.5,289.4,154.5,289.4,154.5 M286.4,153c1,0.6,2,1,3,1.5c0-0.1,0-0.2,0-0.3    c0-0.2,0.1-0.6,0.1-0.8L286.4,153z M289.4,154.5L289.4,154.5l0.1,0.1C289.5,154.5,289.4,154.5,289.4,154.5 M286.4,153    c1,0.6,2,1,3,1.5c0-0.1,0-0.2,0-0.3c0-0.2,0.1-0.6,0.1-0.8L286.4,153z M289.4,154.5L289.4,154.5l0.1,0.1    C289.5,154.5,289.4,154.5,289.4,154.5 M286.4,153c1,0.6,2,1,3,1.5c0-0.1,0-0.2,0-0.3c0-0.2,0.1-0.6,0.1-0.8L286.4,153z     M289.4,154.5L289.4,154.5l0.1,0.1C289.5,154.5,289.4,154.5,289.4,154.5 M286.4,153c1,0.6,2,1,3,1.5c0-0.1,0-0.2,0-0.3    c0-0.2,0.1-0.6,0.1-0.8L286.4,153z M289.4,154.5L289.4,154.5l0.1,0.1C289.5,154.5,289.4,154.5,289.4,154.5 M286.4,153    c1,0.6,2,1,3,1.5c0-0.1,0-0.2,0-0.3c0-0.2,0.1-0.6,0.1-0.8L286.4,153z M289.4,154.5L289.4,154.5l0.1,0.1    C289.5,154.5,289.4,154.5,289.4,154.5 M286.4,153c1,0.6,2,1,3,1.5c0-0.1,0-0.2,0-0.3c0-0.2,0.1-0.6,0.1-0.8L286.4,153z     M250.6,111.4v0.2h0.1C250.7,111.5,250.7,111.4,250.6,111.4 M289.4,154.5L289.4,154.5l0.1,0.1    C289.5,154.5,289.4,154.5,289.4,154.5 M286.4,153c1,0.6,2,1,3,1.5c0-0.1,0-0.2,0-0.3c0-0.2,0.1-0.6,0.1-0.8L286.4,153z     M250.6,111.4v0.2h0.1C250.7,111.5,250.7,111.4,250.6,111.4 M289.4,154.5L289.4,154.5l0.1,0.1    C289.5,154.5,289.4,154.5,289.4,154.5 M286.4,153c1,0.6,2,1,3,1.5c0-0.1,0-0.2,0-0.3c0-0.2,0.1-0.6,0.1-0.8L286.4,153z     M250.6,111.4v0.2h0.1C250.7,111.5,250.7,111.4,250.6,111.4 M289.4,154.5L289.4,154.5l0.1,0.1    C289.5,154.5,289.4,154.5,289.4,154.5 M286.4,153c1,0.6,2,1,3,1.5c0-0.1,0-0.2,0-0.3c0-0.2,0.1-0.6,0.1-0.8L286.4,153z     M250.6,111.4v0.2h0.1C250.7,111.5,250.7,111.4,250.6,111.4 M250.6,111.4v0.2h0.1C250.7,111.5,250.7,111.4,250.6,111.4     M289.4,154.5L289.4,154.5l0.1,0.1C289.5,154.5,289.4,154.5,289.4,154.5 M286.4,153c1,0.6,2,1,3,1.5c0-0.1,0-0.2,0-0.3    c0-0.2,0.1-0.6,0.1-0.8L286.4,153z M250.6,111.4v0.2h0.1C250.7,111.5,250.7,111.4,250.6,111.4 M289.4,154.5L289.4,154.5l0.1,0.1    C289.5,154.5,289.4,154.5,289.4,154.5 M286.4,153c1,0.6,2,1,3,1.5c0-0.1,0-0.2,0-0.3c0-0.2,0.1-0.6,0.1-0.8L286.4,153z     M250.6,111.4v0.2h0.1C250.7,111.5,250.7,111.4,250.6,111.4 M289.4,154.5L289.4,154.5l0.1,0.1    C289.5,154.5,289.4,154.5,289.4,154.5 M286.4,153c1,0.6,2,1,3,1.5c0-0.1,0-0.2,0-0.3c0-0.2,0.1-0.6,0.1-0.8L286.4,153z     M250.6,111.4v0.2h0.1C250.7,111.5,250.7,111.4,250.6,111.4 M289.4,154.5L289.4,154.5l0.1,0.1    C289.5,154.5,289.4,154.5,289.4,154.5 M286.4,153c1,0.6,2,1,3,1.5c0-0.1,0-0.2,0-0.3c0-0.2,0.1-0.6,0.1-0.8L286.4,153z     M250.6,111.4v0.2h0.1C250.7,111.5,250.7,111.4,250.6,111.4 M289.4,154.5L289.4,154.5l0.1,0.1    C289.5,154.5,289.4,154.5,289.4,154.5 M286.4,153c1,0.6,2,1,3,1.5c0-0.1,0-0.2,0-0.3c0-0.2,0.1-0.6,0.1-0.8L286.4,153z     M250.6,111.4v0.2h0.1C250.7,111.5,250.7,111.4,250.6,111.4 M289.4,154.5L289.4,154.5l0.1,0.1    C289.5,154.5,289.4,154.5,289.4,154.5 M286.4,153c1,0.6,2,1,3,1.5c0-0.1,0-0.2,0-0.3c0-0.2,0.1-0.6,0.1-0.8L286.4,153z     M250.6,111.4v0.2h0.1C250.7,111.5,250.7,111.4,250.6,111.4 M289.4,154.5L289.4,154.5l0.1,0.1    C289.5,154.5,289.4,154.5,289.4,154.5 M286.4,153c1,0.6,2,1,3,1.5c0-0.1,0-0.2,0-0.3c0-0.2,0.1-0.6,0.1-0.8L286.4,153z     M250.6,111.4v0.2h0.1C250.7,111.5,250.7,111.4,250.6,111.4 M289.4,154.5L289.4,154.5l0.1,0.1    C289.5,154.5,289.4,154.5,289.4,154.5 M286.4,153c1,0.6,2,1,3,1.5c0-0.1,0-0.2,0-0.3c0-0.2,0.1-0.6,0.1-0.8L286.4,153z     M250.6,111.4v0.2h0.1C250.7,111.5,250.7,111.4,250.6,111.4 M289.4,154.5L289.4,154.5l0.1,0.1    C289.5,154.5,289.4,154.5,289.4,154.5 M286.4,153c1,0.6,2,1,3,1.5c0-0.1,0-0.2,0-0.3c0-0.2,0.1-0.6,0.1-0.8L286.4,153z     M250.6,111.4v0.2h0.1C250.7,111.5,250.7,111.4,250.6,111.4 M289.4,154.5L289.4,154.5l0.1,0.1    C289.5,154.5,289.4,154.5,289.4,154.5 M286.4,153c1,0.6,2,1,3,1.5c0-0.1,0-0.2,0-0.3c0-0.2,0.1-0.6,0.1-0.8L286.4,153z     M250.6,111.4v0.2h0.1C250.7,111.5,250.7,111.4,250.6,111.4 M289.4,154.5L289.4,154.5l0.1,0.1    C289.5,154.5,289.4,154.5,289.4,154.5 M286.4,153c1,0.6,2,1,3,1.5c0-0.1,0-0.2,0-0.3c0-0.2,0.1-0.6,0.1-0.8L286.4,153z     M250.6,111.4v0.2h0.1C250.7,111.5,250.7,111.4,250.6,111.4 M289.4,154.5L289.4,154.5l0.1,0.1    C289.5,154.5,289.4,154.5,289.4,154.5 M286.4,153c1,0.6,2,1,3,1.5c0-0.1,0-0.2,0-0.3c0-0.2,0.1-0.6,0.1-0.8L286.4,153z     M250.6,111.4v0.2h0.1C250.7,111.5,250.7,111.4,250.6,111.4 M289.4,154.5L289.4,154.5l0.1,0.1    C289.5,154.5,289.4,154.5,289.4,154.5 M286.4,153c1,0.6,2,1,3,1.5c0-0.1,0-0.2,0-0.3c0-0.2,0.1-0.6,0.1-0.8L286.4,153z     M250.6,111.4v0.2h0.1C250.7,111.5,250.7,111.4,250.6,111.4 M289.4,154.5L289.4,154.5l0.1,0.1    C289.5,154.5,289.4,154.5,289.4,154.5 M286.4,153c1,0.6,2,1,3,1.5c0-0.1,0-0.2,0-0.3c0-0.2,0.1-0.6,0.1-0.8L286.4,153z     M250.6,111.4v0.2h0.1C250.7,111.5,250.7,111.4,250.6,111.4 M289.4,154.5L289.4,154.5l0.1,0.1    C289.5,154.5,289.4,154.5,289.4,154.5 M286.4,153c1,0.6,2,1,3,1.5c0-0.1,0-0.2,0-0.3c0-0.2,0.1-0.6,0.1-0.8L286.4,153z     M250.6,111.4v0.2h0.1C250.7,111.5,250.7,111.4,250.6,111.4 M289.4,154.5L289.4,154.5l0.1,0.1    C289.5,154.5,289.4,154.5,289.4,154.5 M286.4,153c1,0.6,2,1,3,1.5c0-0.1,0-0.2,0-0.3c0-0.2,0.1-0.6,0.1-0.8L286.4,153z     M250.6,111.4v0.2h0.1C250.7,111.5,250.7,111.4,250.6,111.4 M289.4,154.5L289.4,154.5l0.1,0.1    C289.5,154.5,289.4,154.5,289.4,154.5 M286.4,153c1,0.6,2,1,3,1.5c0-0.1,0-0.2,0-0.3c0-0.2,0.1-0.6,0.1-0.8L286.4,153z     M250.6,111.4v0.2h0.1C250.7,111.5,250.7,111.4,250.6,111.4 M289.4,154.5L289.4,154.5l0.1,0.1    C289.5,154.5,289.4,154.5,289.4,154.5 M286.4,153c1,0.6,2,1,3,1.5c0-0.1,0-0.2,0-0.3c0-0.2,0.1-0.6,0.1-0.8L286.4,153z     M382.5,88.3C312.7,38.8,258,38.7,250.7,39h-0.8v18.1c0.2,0,0.5,0.1,0.7,0.1c0,0,0,0,0.1,0c11.4,2.8,21.5,9.9,26.9,20.5    c4.6,9,3.9,17.4,0.2,24.2c23.6-2.5,40.8,19.4,74.3,9.8c0,0-0.2,0.5-0.8,1.4c-3.7,6.4-18.9,36.1-25.2,100.2c0,0-4.1,5.5-41.2-3.9    c-8.7-2.2-19.9-6.2-34.3,6.7l-0.1,0.1v3.8h0.1c5.8-1.4,11.9-2.1,17.7-2.2c31.2-0.5,61.9,14.4,61.9,14.4    c5.3-39,23.9-99.9,23.9-99.9c-0.1-1.7-0.2-3.6-0.5-5.4c4.5,0.5,9.2,2.4,9.2,2.4c-5.1,16.5-28,112.9-28,112.9    c-32.3-11.3-66.7-19-66.7-19c-0.8,5.4,0.2,10.2-17.8,9.9h-0.1v-13.2l0,0c-0.2,0-0.5-0.1-0.7-0.1v120.9c0.1-0.1,0.2-0.1,0.5-0.2    c0.1,0,0.2-0.1,0.3-0.2C387.2,268.6,382.5,88.3,382.5,88.3 M289.6,153.4l-3.1-0.3c1,0.6,2,1,3,1.5c0-0.1,0-0.2,0-0.3    C289.5,154,289.5,153.6,289.6,153.4 M289.5,154.7l-0.1-0.1l0,0L289.5,154.7 M250.6,111.4v0.2h0.1    C250.7,111.5,250.7,111.4,250.6,111.4 M286.4,153c1,0.6,2,1,3,1.5c0-0.1,0-0.2,0-0.3c0-0.2,0.1-0.6,0.1-0.8L286.4,153z     M289.4,154.5L289.4,154.5l0.1,0.1C289.5,154.5,289.4,154.5,289.4,154.5 M250.6,111.4v0.2h0.1    C250.7,111.5,250.7,111.4,250.6,111.4 M286.4,153c1,0.6,2,1,3,1.5c0-0.1,0-0.2,0-0.3c0-0.2,0.1-0.6,0.1-0.8L286.4,153z     M289.4,154.5L289.4,154.5l0.1,0.1C289.5,154.5,289.4,154.5,289.4,154.5 M250.6,111.4v0.2h0.1    C250.7,111.5,250.7,111.4,250.6,111.4 M286.4,153c1,0.6,2,1,3,1.5c0-0.1,0-0.2,0-0.3c0-0.2,0.1-0.6,0.1-0.8L286.4,153z     M289.4,154.5L289.4,154.5l0.1,0.1C289.5,154.5,289.4,154.5,289.4,154.5 M250.6,111.4v0.2h0.1    C250.7,111.5,250.7,111.4,250.6,111.4 M286.4,153c1,0.6,2,1,3,1.5c0-0.1,0-0.2,0-0.3c0-0.2,0.1-0.6,0.1-0.8L286.4,153z     M289.4,154.5L289.4,154.5l0.1,0.1C289.5,154.5,289.4,154.5,289.4,154.5 M250.6,111.4v0.2h0.1    C250.7,111.5,250.7,111.4,250.6,111.4 M286.4,153c1,0.6,2,1,3,1.5c0-0.1,0-0.2,0-0.3c0-0.2,0.1-0.6,0.1-0.8L286.4,153z     M289.4,154.5L289.4,154.5l0.1,0.1C289.5,154.5,289.4,154.5,289.4,154.5 M250.6,111.4v0.2h0.1    C250.7,111.5,250.7,111.4,250.6,111.4 M286.4,153c1,0.6,2,1,3,1.5c0-0.1,0-0.2,0-0.3c0-0.2,0.1-0.6,0.1-0.8L286.4,153z     M289.4,154.5L289.4,154.5l0.1,0.1C289.5,154.5,289.4,154.5,289.4,154.5 M250.6,111.4v0.2h0.1    C250.7,111.5,250.7,111.4,250.6,111.4 M286.4,153c1,0.6,2,1,3,1.5c0-0.1,0-0.2,0-0.3c0-0.2,0.1-0.6,0.1-0.8L286.4,153z     M289.4,154.5L289.4,154.5l0.1,0.1C289.5,154.5,289.4,154.5,289.4,154.5 M250.6,111.4v0.2h0.1    C250.7,111.5,250.7,111.4,250.6,111.4 M286.4,153c1,0.6,2,1,3,1.5c0-0.1,0-0.2,0-0.3c0-0.2,0.1-0.6,0.1-0.8L286.4,153z     M289.4,154.5L289.4,154.5l0.1,0.1C289.5,154.5,289.4,154.5,289.4,154.5 M250.6,111.4v0.2h0.1    C250.7,111.5,250.7,111.4,250.6,111.4 M286.4,153c1,0.6,2,1,3,1.5c0-0.1,0-0.2,0-0.3c0-0.2,0.1-0.6,0.1-0.8L286.4,153z     M289.4,154.5L289.4,154.5l0.1,0.1C289.5,154.5,289.4,154.5,289.4,154.5 M250.6,111.4v0.2h0.1    C250.7,111.5,250.7,111.4,250.6,111.4 M286.4,153c1,0.6,2,1,3,1.5c0-0.1,0-0.2,0-0.3c0-0.2,0.1-0.6,0.1-0.8L286.4,153z     M289.4,154.5L289.4,154.5l0.1,0.1C289.5,154.5,289.4,154.5,289.4,154.5 M250.6,111.4v0.2h0.1    C250.7,111.5,250.7,111.4,250.6,111.4 M286.4,153c1,0.6,2,1,3,1.5c0-0.1,0-0.2,0-0.3c0-0.2,0.1-0.6,0.1-0.8L286.4,153z     M289.4,154.5L289.4,154.5l0.1,0.1C289.5,154.5,289.4,154.5,289.4,154.5 M250.6,111.4v0.2h0.1    C250.7,111.5,250.7,111.4,250.6,111.4 M286.4,153c1,0.6,2,1,3,1.5c0-0.1,0-0.2,0-0.3c0-0.2,0.1-0.6,0.1-0.8L286.4,153z     M289.4,154.5L289.4,154.5l0.1,0.1C289.5,154.5,289.4,154.5,289.4,154.5 M250.6,111.4v0.2h0.1    C250.7,111.5,250.7,111.4,250.6,111.4 M286.4,153c1,0.6,2,1,3,1.5c0-0.1,0-0.2,0-0.3c0-0.2,0.1-0.6,0.1-0.8L286.4,153z     M289.4,154.5L289.4,154.5l0.1,0.1C289.5,154.5,289.4,154.5,289.4,154.5 M250.6,111.4v0.2h0.1    C250.7,111.5,250.7,111.4,250.6,111.4 M286.4,153c1,0.6,2,1,3,1.5c0-0.1,0-0.2,0-0.3c0-0.2,0.1-0.6,0.1-0.8L286.4,153z     M289.4,154.5L289.4,154.5l0.1,0.1C289.5,154.5,289.4,154.5,289.4,154.5 M250.6,111.4v0.2h0.1    C250.7,111.5,250.7,111.4,250.6,111.4 M286.4,153c1,0.6,2,1,3,1.5c0-0.1,0-0.2,0-0.3c0-0.2,0.1-0.6,0.1-0.8L286.4,153z     M289.4,154.5L289.4,154.5l0.1,0.1C289.5,154.5,289.4,154.5,289.4,154.5 M250.6,111.4v0.2h0.1    C250.7,111.5,250.7,111.4,250.6,111.4 M289.4,154.5L289.4,154.5l0.1,0.1C289.5,154.5,289.4,154.5,289.4,154.5 M286.4,153    c1,0.6,2,1,3,1.5c0-0.1,0-0.2,0-0.3c0-0.2,0.1-0.6,0.1-0.8L286.4,153z M250.6,111.4v0.2h0.1C250.7,111.5,250.7,111.4,250.6,111.4     M289.4,154.5L289.4,154.5l0.1,0.1C289.5,154.5,289.4,154.5,289.4,154.5 M286.4,153c1,0.6,2,1,3,1.5c0-0.1,0-0.2,0-0.3    c0-0.2,0.1-0.6,0.1-0.8L286.4,153z M250.6,111.4v0.2h0.1C250.7,111.5,250.7,111.4,250.6,111.4 M250.6,111.4v0.2h0.1    C250.7,111.5,250.7,111.4,250.6,111.4 M289.4,154.5L289.4,154.5l0.1,0.1C289.5,154.5,289.4,154.5,289.4,154.5 M286.4,153    c1,0.6,2,1,3,1.5c0-0.1,0-0.2,0-0.3c0-0.2,0.1-0.6,0.1-0.8L286.4,153z M250.6,111.4v0.2h0.1C250.7,111.5,250.7,111.4,250.6,111.4     M289.4,154.5L289.4,154.5l0.1,0.1C289.5,154.5,289.4,154.5,289.4,154.5 M286.4,153c1,0.6,2,1,3,1.5c0-0.1,0-0.2,0-0.3    c0-0.2,0.1-0.6,0.1-0.8L286.4,153z M250.6,111.4v0.2h0.1C250.7,111.5,250.7,111.4,250.6,111.4 M289.4,154.5L289.4,154.5l0.1,0.1    C289.5,154.5,289.4,154.5,289.4,154.5 M286.4,153c1,0.6,2,1,3,1.5c0-0.1,0-0.2,0-0.3c0-0.2,0.1-0.6,0.1-0.8L286.4,153z     M250.6,111.4v0.2h0.1C250.7,111.5,250.7,111.4,250.6,111.4 M289.4,154.5L289.4,154.5l0.1,0.1    C289.5,154.5,289.4,154.5,289.4,154.5 M286.4,153c1,0.6,2,1,3,1.5c0-0.1,0-0.2,0-0.3c0-0.2,0.1-0.6,0.1-0.8L286.4,153z     M250.6,111.4v0.2h0.1C250.7,111.5,250.7,111.4,250.6,111.4 M249.9,176.1v39.4c0.2,0.2,0.5,0.3,0.7,0.6v-39.9    C250.4,176.2,250.1,176.2,249.9,176.1 M289.4,154.5L289.4,154.5l0.1,0.1C289.5,154.5,289.4,154.5,289.4,154.5 M286.4,153    c1,0.6,2,1,3,1.5c0-0.1,0-0.2,0-0.3c0-0.2,0.1-0.6,0.1-0.8L286.4,153z M289.4,154.5L289.4,154.5l0.1,0.1    C289.5,154.5,289.4,154.5,289.4,154.5 M286.4,153c1,0.6,2,1,3,1.5c0-0.1,0-0.2,0-0.3c0-0.2,0.1-0.6,0.1-0.8L286.4,153z     M289.4,154.5L289.4,154.5l0.1,0.1C289.5,154.5,289.4,154.5,289.4,154.5 M286.4,153c1,0.6,2,1,3,1.5c0-0.1,0-0.2,0-0.3    c0-0.2,0.1-0.6,0.1-0.8L286.4,153z M289.4,154.5L289.4,154.5l0.1,0.1C289.5,154.5,289.4,154.5,289.4,154.5 M286.4,153    c1,0.6,2,1,3,1.5c0-0.1,0-0.2,0-0.3c0-0.2,0.1-0.6,0.1-0.8L286.4,153z M289.4,154.5L289.4,154.5l0.1,0.1    C289.5,154.5,289.4,154.5,289.4,154.5 M286.4,153c1,0.6,2,1,3,1.5c0-0.1,0-0.2,0-0.3c0-0.2,0.1-0.6,0.1-0.8L286.4,153z     M289.4,154.5L289.4,154.5l0.1,0.1C289.5,154.5,289.4,154.5,289.4,154.5 M286.4,153c1,0.6,2,1,3,1.5c0-0.1,0-0.2,0-0.3    c0-0.2,0.1-0.6,0.1-0.8L286.4,153z M250.6,111.4v0.2h0.1C250.7,111.5,250.7,111.4,250.6,111.4 M250.6,111.4v0.2h0.1    C250.7,111.5,250.7,111.4,250.6,111.4 M289.4,154.5L289.4,154.5l0.1,0.1C289.5,154.5,289.4,154.5,289.4,154.5 M286.4,153    c1,0.6,2,1,3,1.5c0-0.1,0-0.2,0-0.3c0-0.2,0.1-0.6,0.1-0.8L286.4,153z M250.6,111.4v0.2h0.1C250.7,111.5,250.7,111.4,250.6,111.4     M289.4,154.5L289.4,154.5l0.1,0.1C289.5,154.5,289.4,154.5,289.4,154.5 M286.4,153c1,0.6,2,1,3,1.5c0-0.1,0-0.2,0-0.3    c0-0.2,0.1-0.6,0.1-0.8L286.4,153z M289.4,154.5L289.4,154.5l0.1,0.1C289.5,154.5,289.4,154.5,289.4,154.5 M286.4,153    c1,0.6,2,1,3,1.5c0-0.1,0-0.2,0-0.3c0-0.2,0.1-0.6,0.1-0.8L286.4,153z M289.4,154.5L289.4,154.5l0.1,0.1    C289.5,154.5,289.4,154.5,289.4,154.5 M286.4,153c1,0.6,2,1,3,1.5c0-0.1,0-0.2,0-0.3c0-0.2,0.1-0.6,0.1-0.8L286.4,153z"/>
		<path class="st2" d="M244.6,80.9L244.6,80.9c0.1-0.2,0.2-0.3,0.3-0.6C244.9,80.7,244.7,80.8,244.6,80.9 M245,80.3L245,80.3    c0.1-0.2,0.2-0.5,0.5-0.8C245.3,79.7,245.2,80.1,245,80.3 M199.2,105.8c0,0.1,0,0.2,0,0.3c3.2-1.2,6.4-2.3,9.7-3    C206,103.5,202.7,104.3,199.2,105.8 M244.6,80.9L244.6,80.9c0.1-0.2,0.2-0.3,0.3-0.6C244.9,80.7,244.7,80.8,244.6,80.9 M245,80.3    L245,80.3c0.1-0.2,0.2-0.5,0.5-0.8C245.3,79.7,245.2,80.1,245,80.3 M199.2,105.8c0,0.1,0,0.2,0,0.3c3.2-1.2,6.4-2.3,9.7-3    C206,103.5,202.7,104.3,199.2,105.8 M244.6,80.9L244.6,80.9c0.1-0.2,0.2-0.3,0.3-0.6C244.9,80.7,244.7,80.8,244.6,80.9 M245,80.3    L245,80.3c0.1-0.2,0.2-0.5,0.5-0.8C245.3,79.7,245.2,80.1,245,80.3 M199.2,105.8c0,0.1,0,0.2,0,0.3c3.2-1.2,6.4-2.3,9.7-3    C206,103.5,202.7,104.3,199.2,105.8 M244.6,80.9L244.6,80.9c0.1-0.2,0.2-0.3,0.3-0.6C244.9,80.7,244.7,80.8,244.6,80.9 M245,80.3    L245,80.3c0.1-0.2,0.2-0.5,0.5-0.8C245.3,79.7,245.2,80.1,245,80.3 M199.2,105.8c0,0.1,0,0.2,0,0.3c3.2-1.2,6.4-2.3,9.7-3    C206,103.5,202.7,104.3,199.2,105.8 M250.6,216.1v3.9h0.1L250.6,216.1L250.6,216.1z M199.2,105.8c-1,0.5-2.1,0.9-3.2,1.5    c1.2-0.5,2.2-0.8,3.2-1.2c3.2-1.2,6.4-2.3,9.7-3C206,103.5,202.7,104.3,199.2,105.8 M244.6,80.9L244.6,80.9    c0.1-0.2,0.2-0.3,0.3-0.6C244.9,80.7,244.7,80.8,244.6,80.9 M245,80.3L245,80.3c0.1-0.2,0.2-0.5,0.5-0.8    C245.3,79.7,245.2,80.1,245,80.3 M192.2,108.1c3.5-42.6,33.4-56.6,57.8-51c0.2,0,0.5,0.1,0.7,0.1c0,0,0,0,0.1,0V39h-0.8    c-7.2-0.2-62-0.2-131.7,49.2c0,0-4.8,180.3,131.7,252.1c0.1,0.1,0.2,0.1,0.5,0.2c0.1,0.1,0.2,0.2,0.3,0.2V233.2h-0.1V220l0,0    c-0.2,0-0.5-0.1-0.7-0.1v13.3c-17.5,0.1-16.5-4.6-17.3-9.9c0,0-34.3,7.7-66.7,19c0,0-22.9-96.4-28-112.9c0,0,4.8-2,9.2-2.4    c0.6-6.8,1.2-13.7,1.2-13.7l1-0.8c2.9,4.9,18.9,34.5,25.5,100.8c0,0,4.1,5.5,41.2-3.9c8.5-2.2,19.6-6.1,33.7,6.1    c0.2,0.2,0.5,0.3,0.7,0.6v-39.9c-0.2,0-0.5,0-0.7,0c-0.7,0-1.4-0.1-2.1-0.1s-1.4-0.1-2.1-0.2c-1.4-0.1-2.6-0.2-4-0.5    c-0.9-0.1-1.8-0.3-2.8-0.5l-0.7-0.1c-0.9-0.2-1.7-0.5-2.6-0.7c-0.9-0.2-1.8-0.5-2.8-0.8c-1.6-0.5-3.2-1-4.8-1.7    c-0.7-0.2-1.3-0.6-2-0.8c-1.2-0.5-2.2-1-3.2-1.6s-2.1-1.2-3.1-1.8c-0.8-0.5-1.7-1-2.5-1.6c-1-0.8-2.2-1.5-3.2-2.4    c-0.3-0.2-0.7-0.6-1-0.8c-0.2-0.2-0.6-0.5-0.8-0.7c-0.8-0.6-1.5-1.4-2.3-2.1c-0.3-0.3-0.7-0.6-0.9-0.9c-0.9-0.9-1.8-2-2.6-2.9    c-0.3-0.3-0.7-0.8-1-1.3c-0.6-0.7-1-1.3-1.6-2c-0.6-0.8-1.2-1.5-1.6-2.3c-1-1.6-2.1-3.3-3-5.1c-0.5-0.8-0.9-1.7-1.3-2.6    c-0.9-2.1-1.7-4.1-2.5-6.3c-0.3-0.9-0.6-1.8-0.9-2.9c-0.5-1.4-0.8-2.9-1-4.4c-0.2-1-0.5-2.1-0.6-3.1c-0.1-0.7-0.2-1.3-0.2-2.1    c-0.1-0.8-0.2-1.6-0.2-2.4c-0.1-1.2-0.2-2.3-0.2-3.3c-0.1-3-0.1-6.1,0.1-9.4C192.2,108.4,192.2,108.3,192.2,108.1 M250.6,111.4    v0.2h0.1C250.7,111.5,250.7,111.4,250.6,111.4 M199.2,105.8c0,0.1,0,0.2,0,0.3c3.2-1.2,6.4-2.3,9.7-3    C206,103.5,202.7,104.3,199.2,105.8 M244.6,80.9L244.6,80.9c0.1-0.2,0.2-0.3,0.3-0.6C244.9,80.7,244.7,80.8,244.6,80.9 M245,80.3    L245,80.3c0.1-0.2,0.2-0.5,0.5-0.8C245.3,79.7,245.2,80.1,245,80.3 M199.2,105.8c0,0.1,0,0.2,0,0.3c3.2-1.2,6.4-2.3,9.7-3    C206,103.5,202.7,104.3,199.2,105.8 M244.6,80.9L244.6,80.9c0.1-0.2,0.2-0.3,0.3-0.6C244.9,80.7,244.7,80.8,244.6,80.9 M245,80.3    L245,80.3c0.1-0.2,0.2-0.5,0.5-0.8C245.3,79.7,245.2,80.1,245,80.3 M199.2,105.8c0,0.1,0,0.2,0,0.3c3.2-1.2,6.4-2.3,9.7-3    C206,103.5,202.7,104.3,199.2,105.8 M244.6,80.9L244.6,80.9c0.1-0.2,0.2-0.3,0.3-0.6C244.9,80.7,244.7,80.8,244.6,80.9 M245,80.3    L245,80.3c0.1-0.2,0.2-0.5,0.5-0.8C245.3,79.7,245.2,80.1,245,80.3"/>
		<path class="st1" d="M412.7,78.9l-0.3-6.7l-5.3-4.1C335.4,12.3,270.7,8,252.7,8c-1.3,0-2.3,0-2.9,0h-2.3    c-26.3,0-81.2,7.7-154,59.7l-5.8,4.1l-0.5,7c-0.1,2.1-3.1,52.8,14.2,114.1c23.1,82.2,71.9,143.8,141.2,178.7l6.7,3.3l6.7-3.3    c69.2-34.7,118.2-96.5,141.8-178.6C415.5,131.8,412.8,81,412.7,78.9 M249.3,358.3C89.5,278,102.1,79.7,102.1,79.7    c73.3-52.2,126.3-57,145.4-57h2.4c0.3,0,1.3,0,2.6,0c13.8,0,76.2,3.2,145.3,57C397.9,79.7,409,278,249.3,358.3"/>
		<path class="st1" d="M289.6,153.4c0,0.2-0.1,0.6-0.1,0.8c0,0.1,0,0.2,0,0.3c-1-0.5-2-0.9-3-1.5L289.6,153.4z"/>
		<path class="st1" d="M354.4,132.3c0,0-18.6,60.9-23.9,99.9c0,0-30.8-14.8-61.9-14.4c-6,0-12,0.8-17.7,2.2h-0.1v-3.8l0.1-0.1    c14.4-12.9,25.7-8.9,34.3-6.7c37.1,9.3,41.2,3.9,41.2,3.9c6.4-64,21.6-93.8,25.2-100.2l1.3,0.1c0,0,0.6,6.9,1.2,13.7    C354.2,128.8,354.3,130.6,354.4,132.3"/>
		<path class="st1" d="M289.5,154.7h-0.1l0,0C289.5,154.5,289.5,154.5,289.5,154.7"/>
		<path class="st1" d="M289.6,153.4c0,0.2-0.1,0.6-0.1,0.8c0,0.1,0,0.2,0,0.3c-1-0.5-2-0.9-3-1.5L289.6,153.4z"/>
		<path class="st1" d="M300.4,118.3c-7.6-7.9-19.8-15-29.1-8.1c2.6-2.4,4.9-5.2,6.7-8.3c3.7-6.8,4.4-15.2-0.2-24.2    c-5.5-10.6-15.6-17.7-26.9-20.5c0,0,0,0-0.1,0c-0.2,0-0.5-0.1-0.7-0.1c-24.4-5.6-54.3,8.4-57.8,51c0,0.2,0,0.3,0,0.6    c-0.2,3.2-0.2,6.4-0.1,9.4c0,1.2,0.1,2.3,0.2,3.3c0,0.8,0.1,1.6,0.2,2.4c0,0.7,0.2,1.4,0.2,2.1c0.1,1,0.3,2.1,0.6,3.1    c0.3,1.5,0.7,3,1,4.4c0.2,1,0.6,2,0.9,2.9c0.8,2.2,1.6,4.4,2.5,6.3c0.5,0.9,0.8,1.8,1.3,2.6c0.9,1.7,2,3.5,3,5.1    c0.5,0.8,1,1.5,1.6,2.3c0.6,0.7,1,1.3,1.6,2c0.3,0.5,0.7,0.8,1,1.3c0.8,1,1.7,2,2.6,2.9c0.2,0.3,0.6,0.6,0.9,0.9    c0.8,0.7,1.5,1.4,2.3,2.1c0.2,0.2,0.5,0.5,0.8,0.7c0.3,0.2,0.7,0.6,1,0.8c1,0.8,2.1,1.6,3.2,2.4c0.8,0.6,1.6,1,2.5,1.6    c1,0.6,2.1,1.3,3.1,1.8c1,0.6,2.1,1,3.2,1.6c0.6,0.2,1.3,0.6,2,0.8c1.6,0.7,3.1,1.3,4.8,1.7c0.9,0.2,1.8,0.6,2.8,0.8    c0.9,0.2,1.8,0.5,2.6,0.7l0.7,0.1c0.9,0.2,1.8,0.3,2.9,0.5c1.3,0.2,2.6,0.3,4,0.6c0.7,0.1,1.3,0.1,2.1,0.2c0.7,0,1.4,0.1,2.1,0.1    c0.2,0,0.5,0,0.7,0h0.1c17.5,0.6,36.2-5.5,52.6-19.7c0.5-0.5,1-1,1.5-1.5C313.1,145.6,309.2,127.4,300.4,118.3 M289.5,154.7h-0.1    l0,0c-1-0.5-2-0.9-3-1.5c-6.9,4.3-16,8.5-26.1,10.2c-4.9-3.2-7.9-8.2-9.6-13.3v-0.1v-0.1c-0.2-0.8-0.5-1.7-0.7-2.5    c-2.3-9.9-0.7-19.8-0.5-20.9c-0.3,0.6-1.6,3-2.9,6.9l0,0c-2.2,6.6-4.1,17.4-1.3,30.8c-10.2-1-20.9-5.3-30.7-15.1    c1.5-15.5,19-27,19-27h-0.2c-2.3,0-17.1,0.7-25.2,19.4c-4.9-7.2-7.8-15.3-8.7-23.6c8.5-10.8,25.7-11.4,25.7-11.4    s-5.8-4.6-16.2-3.2c-3.2,0.7-6.4,1.8-9.7,3c0-0.1,0-0.2,0-0.3c0.5-5.8,1.8-11.5,3.8-16.7c8.4-1.4,22.1,5.3,22.1,5.3    s-3-12.3-17.7-14.2c3.3-5.5,7.5-10.1,12.3-13.2c7.5,3.6,13.8,17.1,13.8,17.1s-1.8-14.6-5.4-20.9c0.8-0.2,1.7-0.5,2.6-0.6    c3.6-0.6,6.9-0.7,10.1-0.6c3.9,5.3,3.8,13,3.3,17.3c-0.1,0.8-0.1,1.4-0.2,1.8c0,0.5-0.1,0.8-0.1,1c0.1,0,0.1-0.1,0.2-0.2    c0.1-0.1,0.2-0.2,0.2-0.5c0.1-0.1,0.2-0.3,0.2-0.5c0.1-0.1,0.2-0.3,0.3-0.6v-0.1c0.1-0.2,0.2-0.5,0.5-0.8c0.6-0.9,1-2.1,1.6-3.5    c0.2-0.6,0.5-1.3,0.7-2c0.5-1.3,0.8-2.5,1-3.9c0.1-0.5,0.2-1,0.2-1.6c0.2-1.6,0.3-3.3,0.2-5.1c0.2,0,0.5,0.1,0.7,0.1    c0.2,0.1,0.5,0.1,0.7,0.2c0,0,0,0,0.1,0c3.1,0.9,6,2.2,8.5,3.8c1.4,8.9-5.1,16.6-5.1,16.6s8.7-4.8,10.5-12.7    c3.3,3,5.6,6.6,6.9,10.2c-3.3,6.6-13.1,7.5-13.1,7.5s8.7,1.7,14-0.5c-0.2,3.1-1.2,6.1-3.1,9c-5.8,0.2-9.9-0.9-9.9-0.9    s3.1,2.9,7.1,4.5c-2.2,2.6-4.6,4.7-7,6.3c-3.9-2.2-5.1-5.5-5.1-5.5s0.1,3.3,2.5,7c-2.3,1.2-4.4,2-6.6,2.3h-0.1v-0.2    c-0.2-0.3-0.5-0.7-0.7-1c-2-3-1.5-6.1-1.5-6.1s-1.7,3.6-1.5,7c0,0.2,0,0.3,0,0.6c-3.1,0-5.9-0.9-7.9-2.5c0-0.8,0.2-1.5,0.5-2.2    c0.8-2.1,2.5-3.3,3-3.7c-0.7,0.1-3.6,0.8-5.6,2.4c-0.1,0.1-0.2,0.2-0.3,0.2c-0.1-0.2-0.2-0.3-0.2-0.6c-1-2.1-1.4-4.5-1.3-7.5    c0.5-6.7,9.2-9.8,11.4-7.2c2.6,3.1-6.3,3.9-2.2,9.2c1.4,1.8,3.6,2.3,5.6,1.7c0.2,0,0.5-0.1,0.7-0.2c0,0,0,0,0.1,0    c3.5-1.4,6.3-5.4,4.5-10.4c-0.8-2.2-2.4-3.7-4.5-4.6c0,0,0,0-0.1,0c-0.2-0.1-0.5-0.2-0.7-0.2c-0.6-0.2-1.3-0.3-2-0.6    c-0.5-0.1-0.9-0.1-1.4-0.2c-3.1-0.2-6.7,0.3-9.7,2c-4.8,2.6-8.5,7.8-7.5,15.4c0.2,1.5,0.6,3.2,1.3,5.1c1.3,3.5,3.3,6.1,5.8,7.9    c3.6,2.5,7.9,3.6,12.8,3.3h0.2c0.1,0,0.3,0,0.5,0c0.2,0,0.5,0,0.7,0l0,0l0,0c6.7-0.7,13.9-3.6,19.6-8.3l0,0    c-8.2,7.4-5.6,21.1,1.5,29.5c3.8,4.6,9.2,9.3,14.6,12.5l3.1,0.3c0,0.2-0.1,0.6-0.1,0.8c0,0.1,0,0.2,0,0.3    C289.5,154.5,289.5,154.5,289.5,154.7"/>
		<path class="st1" d="M250.7,111.5L250.7,111.5l-0.1-0.2C250.7,111.4,250.7,111.5,250.7,111.5"/>
		<path class="st1" d="M250.6,220v13.2h-0.7v-13.3C250.1,219.9,250.4,219.9,250.6,220L250.6,220z"/>
		<path class="st1" d="M250.6,176.2v39.9c-0.2-0.2-0.5-0.5-0.7-0.6c-14.2-12.2-25.2-8.2-33.7-6.1c-37.1,9.3-41.2,3.9-41.2,3.9    c-6.7-66.3-22.7-95.8-25.5-100.8c-0.3-0.5-0.5-0.7-0.5-0.7c17.8,5.2,31.1,1.3,43.1-3.1c-0.2,3.2-0.2,6.4-0.1,9.4    c0,1.2,0.1,2.3,0.2,3.3c0,0.8,0.1,1.6,0.2,2.4c0,0.7,0.2,1.4,0.2,2.1c0.1,1,0.3,2.1,0.6,3.1c0.3,1.5,0.7,3,1,4.4    c0.2,1,0.6,2,0.9,2.9c0.8,2.2,1.6,4.4,2.5,6.3c0.5,0.9,0.8,1.8,1.3,2.6c0.9,1.7,2,3.5,3,5.1c0.6,0.8,1,1.5,1.6,2.3    c0.6,0.7,1,1.3,1.6,2c0.3,0.5,0.7,0.8,1,1.3c0.8,1,1.7,2,2.6,2.9c0.2,0.3,0.6,0.6,0.9,0.9c0.7,0.7,1.5,1.4,2.3,2.1    c0.2,0.2,0.5,0.5,0.8,0.7c0.3,0.2,0.7,0.5,1,0.8c1,0.8,2.1,1.6,3.2,2.4c0.8,0.6,1.6,1,2.5,1.6c1,0.7,2.1,1.3,3.1,1.8    c1,0.6,2.1,1,3.2,1.6c0.6,0.2,1.3,0.6,2,0.8c1.6,0.7,3.1,1.3,4.8,1.7c0.9,0.2,1.8,0.6,2.8,0.8c0.9,0.2,1.8,0.5,2.6,0.7l0.7,0.1    c0.9,0.2,1.8,0.3,2.9,0.5c1.3,0.2,2.6,0.3,4,0.6c0.7,0.1,1.3,0.1,2.1,0.2c0.7,0,1.4,0.1,2.1,0.1    C250.1,176.2,250.4,176.2,250.6,176.2"/>
		<path class="st1" d="M245,80.4c-0.1,0.2-0.2,0.3-0.2,0.6c-0.1,0.2-0.2,0.3-0.3,0.5c0.1-0.1,0.2-0.3,0.2-0.5    C244.7,80.8,244.9,80.7,245,80.4"/>
		<path class="st1" d="M245.4,79.5c-0.1,0.2-0.2,0.6-0.3,0.8c0,0,0,0.1-0.1,0.1v-0.1C245.2,80.1,245.3,79.7,245.4,79.5"/>
		<path class="st1" d="M245,80.4c-0.1,0.2-0.2,0.3-0.2,0.6c-0.1,0.2-0.2,0.3-0.3,0.5c0.1-0.1,0.2-0.3,0.2-0.5    C244.7,80.8,244.9,80.7,245,80.4"/>
		<path class="st1" d="M245.4,79.5c-0.1,0.2-0.2,0.6-0.3,0.8c0,0,0,0.1-0.1,0.1v-0.1C245.2,80.1,245.3,79.7,245.4,79.5"/>
		<path class="st1" d="M249.9,219.9v13.3c-17.5,0.1-16.5-4.6-17.3-9.9c0,0-34.3,7.7-66.7,19c0,0-22.9-96.4-28-112.9    c0,0,4.8-2,9.2-2.4c-0.1,1.8-0.2,3.7-0.5,5.4c0,0,18.6,60.9,23.9,99.9c0,0,30.7-14.8,61.9-14.4    C238.5,217.9,244.4,218.5,249.9,219.9"/>
		<path class="st1" d="M208.7,103.2c-3.2,0.8-6.4,1.8-9.7,3c0-0.1,0-0.2,0-0.3C202.7,104.3,206,103.5,208.7,103.2"/>
		<path class="st1" d="M289.5,154.7h-0.1l0,0C289.5,154.5,289.5,154.5,289.5,154.7"/>
	</g>
</g>
</svg>
